<svg width="500" height="500" viewBox="0 0 500 500" fill="none" xmlns="http://www.w3.org/2000/svg">
<path d="M384.571 272.429H272.429V384.571C272.429 390.52 270.066 396.225 265.859 400.431C261.653 404.637 255.948 407 250 407C244.052 407 238.347 404.637 234.141 400.431C229.934 396.225 227.571 390.52 227.571 384.571V272.429H115.429C109.48 272.429 103.775 270.066 99.5692 265.859C95.363 261.653 93 255.948 93 250C93 244.052 95.363 238.347 99.5692 234.141C103.775 229.934 109.48 227.571 115.429 227.571H227.571V115.429C227.571 109.48 229.934 103.775 234.141 99.5692C238.347 95.363 244.052 93 250 93C255.948 93 261.653 95.363 265.859 99.5692C270.066 103.775 272.429 109.48 272.429 115.429V227.571H384.571C390.52 227.571 396.225 229.934 400.431 234.141C404.637 238.347 407 244.052 407 250C407 255.948 404.637 261.653 400.431 265.859C396.225 270.066 390.52 272.429 384.571 272.429Z" fill="white"/>
</svg>
